<svg width="87" height="76" viewBox="0 0 87 76" fill="none" xmlns="http://www.w3.org/2000/svg">
<path d="M0.0531795 27.5536C0.0850055 28.0691 0.326241 28.5513 0.723819 28.8939C1.1214 29.2366 1.64275 29.4117 2.17318 29.3808C2.70361 29.3498 3.19968 29.1154 3.55225 28.729C3.90481 28.3426 4.08501 27.8359 4.05318 27.3203C3.84737 24.2035 4.31294 21.0792 5.42011 18.1472C6.52729 15.2152 8.25173 12.54 10.4832 10.2926C12.5133 8.25799 14.9446 6.64216 17.6319 5.54168C20.3191 4.44119 23.2071 3.87866 26.1232 3.8877C30.5732 3.8877 35.9432 6.73538 41.6332 12.1197C42.0521 12.5198 42.6159 12.744 43.2032 12.744C43.7905 12.744 44.3543 12.5198 44.7732 12.1197C49.3682 7.55505 55.6239 4.9269 62.1932 4.80129H62.3432C64.8631 4.78125 67.361 5.25747 69.6864 6.20124C72.0117 7.145 74.1163 8.53676 75.8732 10.2926C80.0113 14.4977 82.3209 20.0922 82.3209 25.9111C82.3209 31.7299 80.0113 37.3244 75.8732 41.5296L43.7332 71.6587C43.5666 71.8183 43.3421 71.9078 43.1082 71.9078C42.8742 71.9078 42.6497 71.8183 42.4832 71.6587L20.4832 51.0057C20.2941 50.8283 20.0709 50.6888 19.8263 50.5952C19.5817 50.5016 19.3206 50.4558 19.0578 50.4603C18.5271 50.4694 18.0218 50.6831 17.6532 51.0543C17.2845 51.4254 17.0827 51.9238 17.0921 52.4396C17.1014 52.9554 17.3213 53.4465 17.7032 53.8048L39.7032 74.4577C40.6144 75.3204 41.8362 75.8031 43.1082 75.8031C44.3802 75.8031 45.602 75.3204 46.5132 74.4577L78.7732 44.2801C83.6552 39.3478 86.3822 32.7697 86.3822 25.9257C86.3822 19.0816 83.6552 12.5035 78.7732 7.57122C76.6506 5.44398 74.1068 3.75655 71.2951 2.61068C68.4834 1.4648 65.462 0.884227 62.4132 0.903954C55.2991 0.937979 48.4508 3.53523 43.1932 8.19324C37.1032 2.74086 31.3632 8.22477e-05 26.1232 8.22477e-05C22.6728 -0.0085297 19.2562 0.659245 16.0775 1.96347C12.8988 3.26769 10.0233 5.18158 7.62318 7.59066C5.00233 10.2235 2.97542 13.3588 1.67196 16.7962C0.368502 20.2336 -0.182835 23.8974 0.0531795 27.5536Z" fill="#CB090C"/>
<path d="M13.5431 44.7585C13.8888 44.7531 14.227 44.6607 14.525 44.4904C14.8229 44.32 15.0704 44.0775 15.2431 43.7866L18.5031 38.6452L22.9331 45.5068C23.1302 45.8125 23.4109 46.0589 23.7438 46.2183C24.0767 46.3778 24.4487 46.4441 24.8181 46.4098C25.1876 46.3755 25.5399 46.242 25.8357 46.0241C26.1316 45.8063 26.3592 45.5128 26.4931 45.1764L32.3131 30.5978L37.6831 51.2702C37.782 51.6533 37.9986 51.998 38.3041 52.2584C38.6096 52.5189 38.9895 52.6827 39.3931 52.7281H39.6231C39.9877 52.728 40.3452 52.6311 40.6572 52.4478C40.9692 52.2645 41.2236 52.0018 41.3931 51.6882L48.0631 39.2672L50.6131 43.6894C50.7893 43.986 51.0431 44.2321 51.3486 44.4028C51.6542 44.5735 52.0007 44.6626 52.3531 44.6613H61.6431C62.1736 44.6613 62.6823 44.4565 63.0574 44.092C63.4324 43.7274 63.6431 43.233 63.6431 42.7175C63.6431 42.2019 63.4324 41.7075 63.0574 41.343C62.6823 40.9785 62.1736 40.7737 61.6431 40.7737H53.5431L49.7531 34.2036C49.5769 33.9069 49.3232 33.6608 49.0176 33.4902C48.7121 33.3195 48.3656 33.2303 48.0131 33.2317C47.6306 33.2308 47.2558 33.3365 46.9332 33.5363C46.6107 33.7361 46.3538 34.0217 46.1931 34.3591L40.1931 45.4485L34.6631 23.8139C34.5578 23.4156 34.3253 23.0601 33.9989 22.7983C33.6726 22.5366 33.2692 22.3822 32.8469 22.3574C32.4245 22.3325 32.005 22.4385 31.6485 22.6601C31.2921 22.8816 31.0171 23.2073 30.8631 23.5904L24.1931 40.21L20.1931 33.98C20.0139 33.7013 19.7649 33.4713 19.4693 33.3115C19.1737 33.1518 18.8413 33.0674 18.5031 33.0665C18.1575 33.0719 17.8192 33.1642 17.5213 33.3346C17.2234 33.5049 16.9759 33.7474 16.8031 34.0384L12.4331 40.9194H5.34314C4.81271 40.9194 4.304 41.1242 3.92893 41.4888C3.55385 41.8533 3.34314 42.3477 3.34314 42.8633C3.34314 43.3788 3.55385 43.8732 3.92893 44.2377C4.304 44.6023 4.81271 44.8071 5.34314 44.8071L13.5431 44.7585Z" fill="#CB090C"/>
</svg>
